<mxfile host="app.diagrams.net" modified="2024-01-02T14:48:11.844Z" agent="Mozilla/5.0 (Macintosh; Intel Mac OS X 10_15_7) AppleWebKit/537.36 (KHTML, like Gecko) Chrome/120.0.0.0 Safari/537.36" etag="7GQ_BIjjCx1eFuZJwucS" version="22.1.16" type="device" pages="2">
  <diagram name="Diagram" id="c7Mjmxp-WRodopjom6Qc">
    <mxGraphModel dx="1264" dy="885" grid="1" gridSize="10" guides="1" tooltips="1" connect="1" arrows="1" fold="1" page="1" pageScale="1" pageWidth="827" pageHeight="1169" math="0" shadow="0">
      <root>
        <mxCell id="0" />
        <mxCell id="1" parent="0" />
        <mxCell id="r4Z01OAb2olh3Qcj7yKG-13" value="AWS Cloud" style="points=[[0,0],[0.25,0],[0.5,0],[0.75,0],[1,0],[1,0.25],[1,0.5],[1,0.75],[1,1],[0.75,1],[0.5,1],[0.25,1],[0,1],[0,0.75],[0,0.5],[0,0.25]];outlineConnect=0;gradientColor=none;html=1;whiteSpace=wrap;fontSize=12;fontStyle=0;container=1;pointerEvents=0;collapsible=0;recursiveResize=0;shape=mxgraph.aws4.group;grIcon=mxgraph.aws4.group_aws_cloud_alt;strokeColor=#232F3E;fillColor=none;verticalAlign=top;align=left;spacingLeft=30;fontColor=#232F3E;dashed=0;" vertex="1" parent="1">
          <mxGeometry x="40" y="240" width="880" height="520" as="geometry" />
        </mxCell>
        <mxCell id="r4Z01OAb2olh3Qcj7yKG-31" style="edgeStyle=orthogonalEdgeStyle;rounded=0;orthogonalLoop=1;jettySize=auto;html=1;" edge="1" parent="r4Z01OAb2olh3Qcj7yKG-13" source="r4Z01OAb2olh3Qcj7yKG-1" target="r4Z01OAb2olh3Qcj7yKG-30">
          <mxGeometry relative="1" as="geometry" />
        </mxCell>
        <mxCell id="r4Z01OAb2olh3Qcj7yKG-48" style="edgeStyle=orthogonalEdgeStyle;rounded=0;orthogonalLoop=1;jettySize=auto;html=1;" edge="1" parent="r4Z01OAb2olh3Qcj7yKG-13" source="r4Z01OAb2olh3Qcj7yKG-30" target="r4Z01OAb2olh3Qcj7yKG-7">
          <mxGeometry relative="1" as="geometry">
            <Array as="points">
              <mxPoint x="599" y="260" />
            </Array>
          </mxGeometry>
        </mxCell>
        <mxCell id="r4Z01OAb2olh3Qcj7yKG-1" value="AWS Amplify" style="sketch=0;points=[[0,0,0],[0.25,0,0],[0.5,0,0],[0.75,0,0],[1,0,0],[0,1,0],[0.25,1,0],[0.5,1,0],[0.75,1,0],[1,1,0],[0,0.25,0],[0,0.5,0],[0,0.75,0],[1,0.25,0],[1,0.5,0],[1,0.75,0]];outlineConnect=0;fontColor=#232F3E;fillColor=#DD344C;strokeColor=#ffffff;dashed=0;verticalLabelPosition=bottom;verticalAlign=top;align=center;html=1;fontSize=12;fontStyle=0;aspect=fixed;shape=mxgraph.aws4.resourceIcon;resIcon=mxgraph.aws4.amplify;" vertex="1" parent="r4Z01OAb2olh3Qcj7yKG-13">
          <mxGeometry x="400" y="360" width="78" height="78" as="geometry" />
        </mxCell>
        <mxCell id="r4Z01OAb2olh3Qcj7yKG-25" style="edgeStyle=orthogonalEdgeStyle;rounded=0;orthogonalLoop=1;jettySize=auto;html=1;" edge="1" parent="r4Z01OAb2olh3Qcj7yKG-13" source="r4Z01OAb2olh3Qcj7yKG-3" target="r4Z01OAb2olh3Qcj7yKG-8">
          <mxGeometry relative="1" as="geometry" />
        </mxCell>
        <mxCell id="r4Z01OAb2olh3Qcj7yKG-26" style="edgeStyle=orthogonalEdgeStyle;rounded=0;orthogonalLoop=1;jettySize=auto;html=1;" edge="1" parent="r4Z01OAb2olh3Qcj7yKG-13" source="r4Z01OAb2olh3Qcj7yKG-8" target="r4Z01OAb2olh3Qcj7yKG-10">
          <mxGeometry relative="1" as="geometry" />
        </mxCell>
        <mxCell id="r4Z01OAb2olh3Qcj7yKG-8" value="DynamoDB" style="sketch=0;points=[[0,0,0],[0.25,0,0],[0.5,0,0],[0.75,0,0],[1,0,0],[0,1,0],[0.25,1,0],[0.5,1,0],[0.75,1,0],[1,1,0],[0,0.25,0],[0,0.5,0],[0,0.75,0],[1,0.25,0],[1,0.5,0],[1,0.75,0]];outlineConnect=0;fontColor=#232F3E;fillColor=#C925D1;strokeColor=#ffffff;dashed=0;verticalLabelPosition=bottom;verticalAlign=top;align=center;html=1;fontSize=12;fontStyle=0;aspect=fixed;shape=mxgraph.aws4.resourceIcon;resIcon=mxgraph.aws4.dynamodb;labelBackgroundColor=default;" vertex="1" parent="r4Z01OAb2olh3Qcj7yKG-13">
          <mxGeometry x="720" y="41" width="78" height="78" as="geometry" />
        </mxCell>
        <mxCell id="r4Z01OAb2olh3Qcj7yKG-35" style="edgeStyle=orthogonalEdgeStyle;rounded=0;orthogonalLoop=1;jettySize=auto;html=1;" edge="1" parent="r4Z01OAb2olh3Qcj7yKG-13" source="r4Z01OAb2olh3Qcj7yKG-22" target="r4Z01OAb2olh3Qcj7yKG-5">
          <mxGeometry relative="1" as="geometry" />
        </mxCell>
        <mxCell id="r4Z01OAb2olh3Qcj7yKG-36" style="edgeStyle=orthogonalEdgeStyle;rounded=0;orthogonalLoop=1;jettySize=auto;html=1;" edge="1" parent="r4Z01OAb2olh3Qcj7yKG-13" source="r4Z01OAb2olh3Qcj7yKG-22" target="r4Z01OAb2olh3Qcj7yKG-24">
          <mxGeometry relative="1" as="geometry">
            <Array as="points">
              <mxPoint x="279" y="160" />
              <mxPoint x="119" y="160" />
            </Array>
          </mxGeometry>
        </mxCell>
        <mxCell id="r4Z01OAb2olh3Qcj7yKG-37" style="edgeStyle=orthogonalEdgeStyle;rounded=0;orthogonalLoop=1;jettySize=auto;html=1;" edge="1" parent="r4Z01OAb2olh3Qcj7yKG-13" source="r4Z01OAb2olh3Qcj7yKG-22" target="r4Z01OAb2olh3Qcj7yKG-6">
          <mxGeometry relative="1" as="geometry" />
        </mxCell>
        <mxCell id="r4Z01OAb2olh3Qcj7yKG-24" value="S3" style="sketch=0;points=[[0,0,0],[0.25,0,0],[0.5,0,0],[0.75,0,0],[1,0,0],[0,1,0],[0.25,1,0],[0.5,1,0],[0.75,1,0],[1,1,0],[0,0.25,0],[0,0.5,0],[0,0.75,0],[1,0.25,0],[1,0.5,0],[1,0.75,0]];outlineConnect=0;fontColor=#232F3E;fillColor=#7AA116;strokeColor=#ffffff;dashed=0;verticalLabelPosition=bottom;verticalAlign=top;align=center;html=1;fontSize=12;fontStyle=0;aspect=fixed;shape=mxgraph.aws4.resourceIcon;resIcon=mxgraph.aws4.s3;labelBackgroundColor=default;" vertex="1" parent="r4Z01OAb2olh3Qcj7yKG-13">
          <mxGeometry x="80" y="40" width="78" height="78" as="geometry" />
        </mxCell>
        <mxCell id="r4Z01OAb2olh3Qcj7yKG-42" style="edgeStyle=orthogonalEdgeStyle;rounded=0;orthogonalLoop=1;jettySize=auto;html=1;" edge="1" parent="r4Z01OAb2olh3Qcj7yKG-13" source="r4Z01OAb2olh3Qcj7yKG-10" target="r4Z01OAb2olh3Qcj7yKG-4">
          <mxGeometry relative="1" as="geometry" />
        </mxCell>
        <mxCell id="r4Z01OAb2olh3Qcj7yKG-10" value="Step Functions" style="sketch=0;points=[[0,0,0],[0.25,0,0],[0.5,0,0],[0.75,0,0],[1,0,0],[0,1,0],[0.25,1,0],[0.5,1,0],[0.75,1,0],[1,1,0],[0,0.25,0],[0,0.5,0],[0,0.75,0],[1,0.25,0],[1,0.5,0],[1,0.75,0]];outlineConnect=0;fontColor=#232F3E;fillColor=#E7157B;strokeColor=#ffffff;dashed=0;verticalLabelPosition=bottom;verticalAlign=top;align=center;html=1;fontSize=12;fontStyle=0;aspect=fixed;shape=mxgraph.aws4.resourceIcon;resIcon=mxgraph.aws4.step_functions;labelBackgroundColor=default;" vertex="1" parent="r4Z01OAb2olh3Qcj7yKG-13">
          <mxGeometry x="720" y="200" width="78" height="78" as="geometry" />
        </mxCell>
        <mxCell id="r4Z01OAb2olh3Qcj7yKG-44" style="edgeStyle=orthogonalEdgeStyle;rounded=0;orthogonalLoop=1;jettySize=auto;html=1;" edge="1" parent="r4Z01OAb2olh3Qcj7yKG-13" source="r4Z01OAb2olh3Qcj7yKG-4" target="r4Z01OAb2olh3Qcj7yKG-8">
          <mxGeometry relative="1" as="geometry">
            <Array as="points">
              <mxPoint x="680" y="400" />
              <mxPoint x="680" y="110" />
            </Array>
          </mxGeometry>
        </mxCell>
        <mxCell id="r4Z01OAb2olh3Qcj7yKG-4" value="Submit Approval&lt;br&gt;Lambda Function" style="sketch=0;outlineConnect=0;fontColor=#232F3E;gradientColor=none;fillColor=#ED7100;strokeColor=none;dashed=0;verticalLabelPosition=bottom;verticalAlign=top;align=center;html=1;fontSize=12;fontStyle=0;aspect=fixed;pointerEvents=1;shape=mxgraph.aws4.lambda_function;" vertex="1" parent="r4Z01OAb2olh3Qcj7yKG-13">
          <mxGeometry x="720" y="360" width="78" height="78" as="geometry" />
        </mxCell>
        <mxCell id="r4Z01OAb2olh3Qcj7yKG-38" style="edgeStyle=orthogonalEdgeStyle;rounded=0;orthogonalLoop=1;jettySize=auto;html=1;" edge="1" parent="r4Z01OAb2olh3Qcj7yKG-13" source="r4Z01OAb2olh3Qcj7yKG-5" target="r4Z01OAb2olh3Qcj7yKG-24">
          <mxGeometry relative="1" as="geometry" />
        </mxCell>
        <mxCell id="r4Z01OAb2olh3Qcj7yKG-5" value="CloudFront" style="sketch=0;points=[[0,0,0],[0.25,0,0],[0.5,0,0],[0.75,0,0],[1,0,0],[0,1,0],[0.25,1,0],[0.5,1,0],[0.75,1,0],[1,1,0],[0,0.25,0],[0,0.5,0],[0,0.75,0],[1,0.25,0],[1,0.5,0],[1,0.75,0]];outlineConnect=0;fontColor=#232F3E;fillColor=#8C4FFF;strokeColor=#ffffff;dashed=0;verticalLabelPosition=bottom;verticalAlign=top;align=center;html=1;fontSize=12;fontStyle=0;aspect=fixed;shape=mxgraph.aws4.resourceIcon;resIcon=mxgraph.aws4.cloudfront;labelBackgroundColor=default;" vertex="1" parent="r4Z01OAb2olh3Qcj7yKG-13">
          <mxGeometry x="240" y="40" width="78" height="78" as="geometry" />
        </mxCell>
        <mxCell id="r4Z01OAb2olh3Qcj7yKG-6" value="Certificate Manager" style="sketch=0;points=[[0,0,0],[0.25,0,0],[0.5,0,0],[0.75,0,0],[1,0,0],[0,1,0],[0.25,1,0],[0.5,1,0],[0.75,1,0],[1,1,0],[0,0.25,0],[0,0.5,0],[0,0.75,0],[1,0.25,0],[1,0.5,0],[1,0.75,0]];outlineConnect=0;fontColor=#232F3E;fillColor=#DD344C;strokeColor=#ffffff;dashed=0;verticalLabelPosition=bottom;verticalAlign=top;align=center;html=1;fontSize=12;fontStyle=0;aspect=fixed;shape=mxgraph.aws4.resourceIcon;resIcon=mxgraph.aws4.certificate_manager_3;" vertex="1" parent="r4Z01OAb2olh3Qcj7yKG-13">
          <mxGeometry x="80" y="200" width="78" height="78" as="geometry" />
        </mxCell>
        <mxCell id="r4Z01OAb2olh3Qcj7yKG-32" style="edgeStyle=orthogonalEdgeStyle;rounded=0;orthogonalLoop=1;jettySize=auto;html=1;" edge="1" parent="r4Z01OAb2olh3Qcj7yKG-13" source="r4Z01OAb2olh3Qcj7yKG-30" target="r4Z01OAb2olh3Qcj7yKG-2">
          <mxGeometry relative="1" as="geometry" />
        </mxCell>
        <mxCell id="r4Z01OAb2olh3Qcj7yKG-33" style="edgeStyle=orthogonalEdgeStyle;rounded=0;orthogonalLoop=1;jettySize=auto;html=1;" edge="1" parent="r4Z01OAb2olh3Qcj7yKG-13" source="r4Z01OAb2olh3Qcj7yKG-30" target="r4Z01OAb2olh3Qcj7yKG-3">
          <mxGeometry relative="1" as="geometry">
            <Array as="points">
              <mxPoint x="599" y="220" />
            </Array>
          </mxGeometry>
        </mxCell>
        <mxCell id="r4Z01OAb2olh3Qcj7yKG-34" style="edgeStyle=orthogonalEdgeStyle;rounded=0;orthogonalLoop=1;jettySize=auto;html=1;" edge="1" parent="r4Z01OAb2olh3Qcj7yKG-13" source="r4Z01OAb2olh3Qcj7yKG-30" target="r4Z01OAb2olh3Qcj7yKG-22">
          <mxGeometry relative="1" as="geometry" />
        </mxCell>
        <mxCell id="r4Z01OAb2olh3Qcj7yKG-30" value="CloudFormation" style="sketch=0;points=[[0,0,0],[0.25,0,0],[0.5,0,0],[0.75,0,0],[1,0,0],[0,1,0],[0.25,1,0],[0.5,1,0],[0.75,1,0],[1,1,0],[0,0.25,0],[0,0.5,0],[0,0.75,0],[1,0.25,0],[1,0.5,0],[1,0.75,0]];points=[[0,0,0],[0.25,0,0],[0.5,0,0],[0.75,0,0],[1,0,0],[0,1,0],[0.25,1,0],[0.5,1,0],[0.75,1,0],[1,1,0],[0,0.25,0],[0,0.5,0],[0,0.75,0],[1,0.25,0],[1,0.5,0],[1,0.75,0]];outlineConnect=0;fontColor=#232F3E;fillColor=#E7157B;strokeColor=#ffffff;dashed=0;verticalLabelPosition=bottom;verticalAlign=top;align=center;html=1;fontSize=12;fontStyle=0;aspect=fixed;shape=mxgraph.aws4.resourceIcon;resIcon=mxgraph.aws4.cloudformation;labelBackgroundColor=default;" vertex="1" parent="r4Z01OAb2olh3Qcj7yKG-13">
          <mxGeometry x="400" y="200" width="78" height="78" as="geometry" />
        </mxCell>
        <mxCell id="r4Z01OAb2olh3Qcj7yKG-45" style="edgeStyle=orthogonalEdgeStyle;rounded=0;orthogonalLoop=1;jettySize=auto;html=1;" edge="1" parent="r4Z01OAb2olh3Qcj7yKG-13" source="r4Z01OAb2olh3Qcj7yKG-2" target="r4Z01OAb2olh3Qcj7yKG-3">
          <mxGeometry relative="1" as="geometry" />
        </mxCell>
        <mxCell id="r4Z01OAb2olh3Qcj7yKG-2" value="Cognito" style="sketch=0;points=[[0,0,0],[0.25,0,0],[0.5,0,0],[0.75,0,0],[1,0,0],[0,1,0],[0.25,1,0],[0.5,1,0],[0.75,1,0],[1,1,0],[0,0.25,0],[0,0.5,0],[0,0.75,0],[1,0.25,0],[1,0.5,0],[1,0.75,0]];outlineConnect=0;fontColor=#232F3E;fillColor=#DD344C;strokeColor=#ffffff;dashed=0;verticalLabelPosition=bottom;verticalAlign=top;align=center;html=1;fontSize=12;fontStyle=0;aspect=fixed;shape=mxgraph.aws4.resourceIcon;resIcon=mxgraph.aws4.cognito;labelBackgroundColor=default;" vertex="1" parent="r4Z01OAb2olh3Qcj7yKG-13">
          <mxGeometry x="400" y="41" width="78" height="78" as="geometry" />
        </mxCell>
        <mxCell id="r4Z01OAb2olh3Qcj7yKG-3" value="AppSync" style="sketch=0;points=[[0,0,0],[0.25,0,0],[0.5,0,0],[0.75,0,0],[1,0,0],[0,1,0],[0.25,1,0],[0.5,1,0],[0.75,1,0],[1,1,0],[0,0.25,0],[0,0.5,0],[0,0.75,0],[1,0.25,0],[1,0.5,0],[1,0.75,0]];outlineConnect=0;fontColor=#232F3E;fillColor=#E7157B;strokeColor=#ffffff;dashed=0;verticalLabelPosition=bottom;verticalAlign=top;align=center;html=1;fontSize=12;fontStyle=0;aspect=fixed;shape=mxgraph.aws4.resourceIcon;resIcon=mxgraph.aws4.appsync;labelBackgroundColor=default;" vertex="1" parent="r4Z01OAb2olh3Qcj7yKG-13">
          <mxGeometry x="560" y="41" width="78" height="78" as="geometry" />
        </mxCell>
        <mxCell id="r4Z01OAb2olh3Qcj7yKG-12" value="Route 53" style="sketch=0;points=[[0,0,0],[0.25,0,0],[0.5,0,0],[0.75,0,0],[1,0,0],[0,1,0],[0.25,1,0],[0.5,1,0],[0.75,1,0],[1,1,0],[0,0.25,0],[0,0.5,0],[0,0.75,0],[1,0.25,0],[1,0.5,0],[1,0.75,0]];outlineConnect=0;fontColor=#232F3E;fillColor=#8C4FFF;strokeColor=#ffffff;dashed=0;verticalLabelPosition=bottom;verticalAlign=top;align=center;html=1;fontSize=12;fontStyle=0;aspect=fixed;shape=mxgraph.aws4.resourceIcon;resIcon=mxgraph.aws4.route_53;" vertex="1" parent="r4Z01OAb2olh3Qcj7yKG-13">
          <mxGeometry x="240" y="360" width="78" height="78" as="geometry" />
        </mxCell>
        <mxCell id="r4Z01OAb2olh3Qcj7yKG-47" style="edgeStyle=orthogonalEdgeStyle;rounded=0;orthogonalLoop=1;jettySize=auto;html=1;entryX=0.5;entryY=0;entryDx=0;entryDy=0;entryPerimeter=0;" edge="1" parent="r4Z01OAb2olh3Qcj7yKG-13" source="r4Z01OAb2olh3Qcj7yKG-22" target="r4Z01OAb2olh3Qcj7yKG-12">
          <mxGeometry relative="1" as="geometry" />
        </mxCell>
        <mxCell id="r4Z01OAb2olh3Qcj7yKG-22" value="AWS Amplify Hosting" style="sketch=0;points=[[0,0,0],[0.25,0,0],[0.5,0,0],[0.75,0,0],[1,0,0],[0,1,0],[0.25,1,0],[0.5,1,0],[0.75,1,0],[1,1,0],[0,0.25,0],[0,0.5,0],[0,0.75,0],[1,0.25,0],[1,0.5,0],[1,0.75,0]];outlineConnect=0;fontColor=#232F3E;fillColor=#DD344C;strokeColor=#ffffff;dashed=0;verticalLabelPosition=bottom;verticalAlign=top;align=center;html=1;fontSize=12;fontStyle=0;aspect=fixed;shape=mxgraph.aws4.resourceIcon;resIcon=mxgraph.aws4.amplify;labelBackgroundColor=default;" vertex="1" parent="r4Z01OAb2olh3Qcj7yKG-13">
          <mxGeometry x="240" y="200" width="78" height="78" as="geometry" />
        </mxCell>
        <mxCell id="r4Z01OAb2olh3Qcj7yKG-7" value="CloudWatch" style="sketch=0;points=[[0,0,0],[0.25,0,0],[0.5,0,0],[0.75,0,0],[1,0,0],[0,1,0],[0.25,1,0],[0.5,1,0],[0.75,1,0],[1,1,0],[0,0.25,0],[0,0.5,0],[0,0.75,0],[1,0.25,0],[1,0.5,0],[1,0.75,0]];points=[[0,0,0],[0.25,0,0],[0.5,0,0],[0.75,0,0],[1,0,0],[0,1,0],[0.25,1,0],[0.5,1,0],[0.75,1,0],[1,1,0],[0,0.25,0],[0,0.5,0],[0,0.75,0],[1,0.25,0],[1,0.5,0],[1,0.75,0]];outlineConnect=0;fontColor=#232F3E;fillColor=#E7157B;strokeColor=#ffffff;dashed=0;verticalLabelPosition=bottom;verticalAlign=top;align=center;html=1;fontSize=12;fontStyle=0;aspect=fixed;shape=mxgraph.aws4.resourceIcon;resIcon=mxgraph.aws4.cloudwatch_2;" vertex="1" parent="r4Z01OAb2olh3Qcj7yKG-13">
          <mxGeometry x="560" y="360" width="78" height="78" as="geometry" />
        </mxCell>
        <mxCell id="r4Z01OAb2olh3Qcj7yKG-39" style="edgeStyle=orthogonalEdgeStyle;rounded=0;orthogonalLoop=1;jettySize=auto;html=1;" edge="1" parent="1" source="r4Z01OAb2olh3Qcj7yKG-14" target="r4Z01OAb2olh3Qcj7yKG-5">
          <mxGeometry relative="1" as="geometry">
            <Array as="points">
              <mxPoint x="450" y="180" />
              <mxPoint x="319" y="180" />
            </Array>
          </mxGeometry>
        </mxCell>
        <mxCell id="r4Z01OAb2olh3Qcj7yKG-40" style="edgeStyle=orthogonalEdgeStyle;rounded=0;orthogonalLoop=1;jettySize=auto;html=1;" edge="1" parent="1" source="r4Z01OAb2olh3Qcj7yKG-14" target="r4Z01OAb2olh3Qcj7yKG-2">
          <mxGeometry relative="1" as="geometry" />
        </mxCell>
        <mxCell id="r4Z01OAb2olh3Qcj7yKG-41" style="edgeStyle=orthogonalEdgeStyle;rounded=0;orthogonalLoop=1;jettySize=auto;html=1;" edge="1" parent="1" source="r4Z01OAb2olh3Qcj7yKG-14" target="r4Z01OAb2olh3Qcj7yKG-3">
          <mxGeometry relative="1" as="geometry">
            <Array as="points">
              <mxPoint x="510" y="180" />
              <mxPoint x="639" y="180" />
            </Array>
          </mxGeometry>
        </mxCell>
        <mxCell id="r4Z01OAb2olh3Qcj7yKG-14" value="Client / User" style="sketch=0;outlineConnect=0;fontColor=#232F3E;gradientColor=none;fillColor=#232F3D;strokeColor=none;dashed=0;verticalLabelPosition=bottom;verticalAlign=top;align=center;html=1;fontSize=12;fontStyle=0;aspect=fixed;pointerEvents=1;shape=mxgraph.aws4.client;labelBackgroundColor=default;" vertex="1" parent="1">
          <mxGeometry x="440" y="80" width="78" height="76" as="geometry" />
        </mxCell>
        <mxCell id="r4Z01OAb2olh3Qcj7yKG-18" value="Third party" style="fillColor=none;strokeColor=#5A6C86;verticalAlign=top;fontStyle=0;fontColor=#5A6C86;whiteSpace=wrap;html=1;" vertex="1" parent="1">
          <mxGeometry x="1000" y="559" width="160" height="201" as="geometry" />
        </mxCell>
        <mxCell id="r4Z01OAb2olh3Qcj7yKG-15" value="Approval API" style="sketch=0;points=[[0,0,0],[0.25,0,0],[0.5,0,0],[0.75,0,0],[1,0,0],[0,1,0],[0.25,1,0],[0.5,1,0],[0.75,1,0],[1,1,0],[0,0.25,0],[0,0.5,0],[0,0.75,0],[1,0.25,0],[1,0.5,0],[1,0.75,0]];gradientDirection=north;outlineConnect=0;fontColor=#232F3E;gradientColor=none;fillColor=#1E262E;strokeColor=#ffffff;dashed=0;verticalLabelPosition=bottom;verticalAlign=top;align=center;html=1;fontSize=12;fontStyle=0;aspect=fixed;shape=mxgraph.aws4.resourceIcon;resIcon=mxgraph.aws4.general;" vertex="1" parent="1">
          <mxGeometry x="1040" y="600" width="78" height="78" as="geometry" />
        </mxCell>
        <mxCell id="r4Z01OAb2olh3Qcj7yKG-43" style="edgeStyle=orthogonalEdgeStyle;rounded=0;orthogonalLoop=1;jettySize=auto;html=1;" edge="1" parent="1" source="r4Z01OAb2olh3Qcj7yKG-4" target="r4Z01OAb2olh3Qcj7yKG-15">
          <mxGeometry relative="1" as="geometry" />
        </mxCell>
      </root>
    </mxGraphModel>
  </diagram>
  <diagram name="Deployment" id="9g1kfTsAwY3UPEpCdquh">
    <mxGraphModel dx="1264" dy="885" grid="1" gridSize="10" guides="1" tooltips="1" connect="1" arrows="1" fold="1" page="1" pageScale="1" pageWidth="827" pageHeight="1169" math="0" shadow="0">
      <root>
        <mxCell id="amgUa6nvQ8_LvWN5kx6C-0" />
        <mxCell id="amgUa6nvQ8_LvWN5kx6C-1" parent="amgUa6nvQ8_LvWN5kx6C-0" />
        <mxCell id="amgUa6nvQ8_LvWN5kx6C-2" value="AWS Cloud" style="points=[[0,0],[0.25,0],[0.5,0],[0.75,0],[1,0],[1,0.25],[1,0.5],[1,0.75],[1,1],[0.75,1],[0.5,1],[0.25,1],[0,1],[0,0.75],[0,0.5],[0,0.25]];outlineConnect=0;gradientColor=none;html=1;whiteSpace=wrap;fontSize=12;fontStyle=0;container=1;pointerEvents=0;collapsible=0;recursiveResize=0;shape=mxgraph.aws4.group;grIcon=mxgraph.aws4.group_aws_cloud_alt;strokeColor=#232F3E;fillColor=none;verticalAlign=top;align=left;spacingLeft=30;fontColor=#232F3E;dashed=0;textOpacity=25;" vertex="1" parent="amgUa6nvQ8_LvWN5kx6C-1">
          <mxGeometry x="40" y="240" width="880" height="520" as="geometry" />
        </mxCell>
        <mxCell id="amgUa6nvQ8_LvWN5kx6C-3" style="edgeStyle=orthogonalEdgeStyle;rounded=0;orthogonalLoop=1;jettySize=auto;html=1;textOpacity=35;" edge="1" parent="amgUa6nvQ8_LvWN5kx6C-2" source="amgUa6nvQ8_LvWN5kx6C-5" target="amgUa6nvQ8_LvWN5kx6C-23">
          <mxGeometry relative="1" as="geometry" />
        </mxCell>
        <mxCell id="amgUa6nvQ8_LvWN5kx6C-4" style="edgeStyle=orthogonalEdgeStyle;rounded=0;orthogonalLoop=1;jettySize=auto;html=1;textOpacity=25;" edge="1" parent="amgUa6nvQ8_LvWN5kx6C-2" source="amgUa6nvQ8_LvWN5kx6C-23" target="amgUa6nvQ8_LvWN5kx6C-30">
          <mxGeometry relative="1" as="geometry">
            <Array as="points">
              <mxPoint x="599" y="260" />
            </Array>
          </mxGeometry>
        </mxCell>
        <mxCell id="amgUa6nvQ8_LvWN5kx6C-5" value="AWS Amplify" style="sketch=0;points=[[0,0,0],[0.25,0,0],[0.5,0,0],[0.75,0,0],[1,0,0],[0,1,0],[0.25,1,0],[0.5,1,0],[0.75,1,0],[1,1,0],[0,0.25,0],[0,0.5,0],[0,0.75,0],[1,0.25,0],[1,0.5,0],[1,0.75,0]];outlineConnect=0;fontColor=#232F3E;fillColor=#DD344C;strokeColor=#ffffff;dashed=0;verticalLabelPosition=bottom;verticalAlign=top;align=center;html=1;fontSize=12;fontStyle=0;aspect=fixed;shape=mxgraph.aws4.resourceIcon;resIcon=mxgraph.aws4.amplify;" vertex="1" parent="amgUa6nvQ8_LvWN5kx6C-2">
          <mxGeometry x="400" y="360" width="78" height="78" as="geometry" />
        </mxCell>
        <mxCell id="amgUa6nvQ8_LvWN5kx6C-6" style="edgeStyle=orthogonalEdgeStyle;rounded=0;orthogonalLoop=1;jettySize=auto;html=1;fillOpacity=25;textOpacity=25;" edge="1" parent="amgUa6nvQ8_LvWN5kx6C-2" source="amgUa6nvQ8_LvWN5kx6C-26" target="amgUa6nvQ8_LvWN5kx6C-8">
          <mxGeometry relative="1" as="geometry" />
        </mxCell>
        <mxCell id="amgUa6nvQ8_LvWN5kx6C-7" style="edgeStyle=orthogonalEdgeStyle;rounded=0;orthogonalLoop=1;jettySize=auto;html=1;textOpacity=25;" edge="1" parent="amgUa6nvQ8_LvWN5kx6C-2" source="amgUa6nvQ8_LvWN5kx6C-8" target="amgUa6nvQ8_LvWN5kx6C-14">
          <mxGeometry relative="1" as="geometry" />
        </mxCell>
        <mxCell id="amgUa6nvQ8_LvWN5kx6C-8" value="DynamoDB" style="sketch=0;points=[[0,0,0],[0.25,0,0],[0.5,0,0],[0.75,0,0],[1,0,0],[0,1,0],[0.25,1,0],[0.5,1,0],[0.75,1,0],[1,1,0],[0,0.25,0],[0,0.5,0],[0,0.75,0],[1,0.25,0],[1,0.5,0],[1,0.75,0]];outlineConnect=0;fontColor=#232F3E;fillColor=#C925D1;strokeColor=#ffffff;dashed=0;verticalLabelPosition=bottom;verticalAlign=top;align=center;html=1;fontSize=12;fontStyle=0;aspect=fixed;shape=mxgraph.aws4.resourceIcon;resIcon=mxgraph.aws4.dynamodb;labelBackgroundColor=default;fillOpacity=25;textOpacity=25;" vertex="1" parent="amgUa6nvQ8_LvWN5kx6C-2">
          <mxGeometry x="720" y="41" width="78" height="78" as="geometry" />
        </mxCell>
        <mxCell id="amgUa6nvQ8_LvWN5kx6C-9" style="edgeStyle=orthogonalEdgeStyle;rounded=0;orthogonalLoop=1;jettySize=auto;html=1;fillOpacity=25;textOpacity=25;" edge="1" parent="amgUa6nvQ8_LvWN5kx6C-2" source="amgUa6nvQ8_LvWN5kx6C-29" target="amgUa6nvQ8_LvWN5kx6C-18">
          <mxGeometry relative="1" as="geometry" />
        </mxCell>
        <mxCell id="amgUa6nvQ8_LvWN5kx6C-10" style="edgeStyle=orthogonalEdgeStyle;rounded=0;orthogonalLoop=1;jettySize=auto;html=1;fillOpacity=25;textOpacity=25;" edge="1" parent="amgUa6nvQ8_LvWN5kx6C-2" source="amgUa6nvQ8_LvWN5kx6C-29" target="amgUa6nvQ8_LvWN5kx6C-12">
          <mxGeometry relative="1" as="geometry">
            <Array as="points">
              <mxPoint x="279" y="160" />
              <mxPoint x="119" y="160" />
            </Array>
          </mxGeometry>
        </mxCell>
        <mxCell id="amgUa6nvQ8_LvWN5kx6C-11" style="edgeStyle=orthogonalEdgeStyle;rounded=0;orthogonalLoop=1;jettySize=auto;html=1;fillOpacity=25;textOpacity=25;" edge="1" parent="amgUa6nvQ8_LvWN5kx6C-2" source="amgUa6nvQ8_LvWN5kx6C-29" target="amgUa6nvQ8_LvWN5kx6C-19">
          <mxGeometry relative="1" as="geometry" />
        </mxCell>
        <mxCell id="amgUa6nvQ8_LvWN5kx6C-12" value="S3" style="sketch=0;points=[[0,0,0],[0.25,0,0],[0.5,0,0],[0.75,0,0],[1,0,0],[0,1,0],[0.25,1,0],[0.5,1,0],[0.75,1,0],[1,1,0],[0,0.25,0],[0,0.5,0],[0,0.75,0],[1,0.25,0],[1,0.5,0],[1,0.75,0]];outlineConnect=0;fontColor=#232F3E;fillColor=#7AA116;strokeColor=#ffffff;dashed=0;verticalLabelPosition=bottom;verticalAlign=top;align=center;html=1;fontSize=12;fontStyle=0;aspect=fixed;shape=mxgraph.aws4.resourceIcon;resIcon=mxgraph.aws4.s3;labelBackgroundColor=default;fillOpacity=25;textOpacity=25;" vertex="1" parent="amgUa6nvQ8_LvWN5kx6C-2">
          <mxGeometry x="80" y="40" width="78" height="78" as="geometry" />
        </mxCell>
        <mxCell id="amgUa6nvQ8_LvWN5kx6C-13" style="edgeStyle=orthogonalEdgeStyle;rounded=0;orthogonalLoop=1;jettySize=auto;html=1;fillOpacity=25;textOpacity=25;" edge="1" parent="amgUa6nvQ8_LvWN5kx6C-2" source="amgUa6nvQ8_LvWN5kx6C-14" target="amgUa6nvQ8_LvWN5kx6C-16">
          <mxGeometry relative="1" as="geometry" />
        </mxCell>
        <mxCell id="amgUa6nvQ8_LvWN5kx6C-14" value="Step Functions" style="sketch=0;points=[[0,0,0],[0.25,0,0],[0.5,0,0],[0.75,0,0],[1,0,0],[0,1,0],[0.25,1,0],[0.5,1,0],[0.75,1,0],[1,1,0],[0,0.25,0],[0,0.5,0],[0,0.75,0],[1,0.25,0],[1,0.5,0],[1,0.75,0]];outlineConnect=0;fontColor=#232F3E;fillColor=#E7157B;strokeColor=#ffffff;dashed=0;verticalLabelPosition=bottom;verticalAlign=top;align=center;html=1;fontSize=12;fontStyle=0;aspect=fixed;shape=mxgraph.aws4.resourceIcon;resIcon=mxgraph.aws4.step_functions;labelBackgroundColor=default;fillOpacity=25;textOpacity=25;" vertex="1" parent="amgUa6nvQ8_LvWN5kx6C-2">
          <mxGeometry x="720" y="200" width="78" height="78" as="geometry" />
        </mxCell>
        <mxCell id="amgUa6nvQ8_LvWN5kx6C-15" style="edgeStyle=orthogonalEdgeStyle;rounded=0;orthogonalLoop=1;jettySize=auto;html=1;textOpacity=25;" edge="1" parent="amgUa6nvQ8_LvWN5kx6C-2" source="amgUa6nvQ8_LvWN5kx6C-16" target="amgUa6nvQ8_LvWN5kx6C-8">
          <mxGeometry relative="1" as="geometry">
            <Array as="points">
              <mxPoint x="680" y="400" />
              <mxPoint x="680" y="110" />
            </Array>
          </mxGeometry>
        </mxCell>
        <mxCell id="amgUa6nvQ8_LvWN5kx6C-16" value="Submit Approval&lt;br&gt;Lambda Function" style="sketch=0;outlineConnect=0;fontColor=#232F3E;gradientColor=none;fillColor=#ED7100;strokeColor=none;dashed=0;verticalLabelPosition=bottom;verticalAlign=top;align=center;html=1;fontSize=12;fontStyle=0;aspect=fixed;pointerEvents=1;shape=mxgraph.aws4.lambda_function;fillOpacity=25;textOpacity=25;" vertex="1" parent="amgUa6nvQ8_LvWN5kx6C-2">
          <mxGeometry x="720" y="360" width="78" height="78" as="geometry" />
        </mxCell>
        <mxCell id="amgUa6nvQ8_LvWN5kx6C-17" style="edgeStyle=orthogonalEdgeStyle;rounded=0;orthogonalLoop=1;jettySize=auto;html=1;fillOpacity=25;textOpacity=25;" edge="1" parent="amgUa6nvQ8_LvWN5kx6C-2" source="amgUa6nvQ8_LvWN5kx6C-18" target="amgUa6nvQ8_LvWN5kx6C-12">
          <mxGeometry relative="1" as="geometry" />
        </mxCell>
        <mxCell id="amgUa6nvQ8_LvWN5kx6C-18" value="CloudFront" style="sketch=0;points=[[0,0,0],[0.25,0,0],[0.5,0,0],[0.75,0,0],[1,0,0],[0,1,0],[0.25,1,0],[0.5,1,0],[0.75,1,0],[1,1,0],[0,0.25,0],[0,0.5,0],[0,0.75,0],[1,0.25,0],[1,0.5,0],[1,0.75,0]];outlineConnect=0;fontColor=#232F3E;fillColor=#8C4FFF;strokeColor=#ffffff;dashed=0;verticalLabelPosition=bottom;verticalAlign=top;align=center;html=1;fontSize=12;fontStyle=0;aspect=fixed;shape=mxgraph.aws4.resourceIcon;resIcon=mxgraph.aws4.cloudfront;labelBackgroundColor=default;fillOpacity=25;textOpacity=25;" vertex="1" parent="amgUa6nvQ8_LvWN5kx6C-2">
          <mxGeometry x="240" y="40" width="78" height="78" as="geometry" />
        </mxCell>
        <mxCell id="amgUa6nvQ8_LvWN5kx6C-19" value="Certificate Manager" style="sketch=0;points=[[0,0,0],[0.25,0,0],[0.5,0,0],[0.75,0,0],[1,0,0],[0,1,0],[0.25,1,0],[0.5,1,0],[0.75,1,0],[1,1,0],[0,0.25,0],[0,0.5,0],[0,0.75,0],[1,0.25,0],[1,0.5,0],[1,0.75,0]];outlineConnect=0;fontColor=#232F3E;fillColor=#DD344C;strokeColor=#ffffff;dashed=0;verticalLabelPosition=bottom;verticalAlign=top;align=center;html=1;fontSize=12;fontStyle=0;aspect=fixed;shape=mxgraph.aws4.resourceIcon;resIcon=mxgraph.aws4.certificate_manager_3;fillOpacity=25;textOpacity=25;" vertex="1" parent="amgUa6nvQ8_LvWN5kx6C-2">
          <mxGeometry x="80" y="200" width="78" height="78" as="geometry" />
        </mxCell>
        <mxCell id="amgUa6nvQ8_LvWN5kx6C-20" style="edgeStyle=orthogonalEdgeStyle;rounded=0;orthogonalLoop=1;jettySize=auto;html=1;textOpacity=25;" edge="1" parent="amgUa6nvQ8_LvWN5kx6C-2" source="amgUa6nvQ8_LvWN5kx6C-23" target="amgUa6nvQ8_LvWN5kx6C-25">
          <mxGeometry relative="1" as="geometry" />
        </mxCell>
        <mxCell id="amgUa6nvQ8_LvWN5kx6C-21" style="edgeStyle=orthogonalEdgeStyle;rounded=0;orthogonalLoop=1;jettySize=auto;html=1;textOpacity=25;" edge="1" parent="amgUa6nvQ8_LvWN5kx6C-2" source="amgUa6nvQ8_LvWN5kx6C-23" target="amgUa6nvQ8_LvWN5kx6C-26">
          <mxGeometry relative="1" as="geometry">
            <Array as="points">
              <mxPoint x="599" y="220" />
            </Array>
          </mxGeometry>
        </mxCell>
        <mxCell id="amgUa6nvQ8_LvWN5kx6C-22" style="edgeStyle=orthogonalEdgeStyle;rounded=0;orthogonalLoop=1;jettySize=auto;html=1;textOpacity=25;" edge="1" parent="amgUa6nvQ8_LvWN5kx6C-2" source="amgUa6nvQ8_LvWN5kx6C-23" target="amgUa6nvQ8_LvWN5kx6C-29">
          <mxGeometry relative="1" as="geometry" />
        </mxCell>
        <mxCell id="amgUa6nvQ8_LvWN5kx6C-23" value="CloudFormation" style="sketch=0;points=[[0,0,0],[0.25,0,0],[0.5,0,0],[0.75,0,0],[1,0,0],[0,1,0],[0.25,1,0],[0.5,1,0],[0.75,1,0],[1,1,0],[0,0.25,0],[0,0.5,0],[0,0.75,0],[1,0.25,0],[1,0.5,0],[1,0.75,0]];points=[[0,0,0],[0.25,0,0],[0.5,0,0],[0.75,0,0],[1,0,0],[0,1,0],[0.25,1,0],[0.5,1,0],[0.75,1,0],[1,1,0],[0,0.25,0],[0,0.5,0],[0,0.75,0],[1,0.25,0],[1,0.5,0],[1,0.75,0]];outlineConnect=0;fontColor=#232F3E;fillColor=#E7157B;strokeColor=#ffffff;dashed=0;verticalLabelPosition=bottom;verticalAlign=top;align=center;html=1;fontSize=12;fontStyle=0;aspect=fixed;shape=mxgraph.aws4.resourceIcon;resIcon=mxgraph.aws4.cloudformation;labelBackgroundColor=default;" vertex="1" parent="amgUa6nvQ8_LvWN5kx6C-2">
          <mxGeometry x="400" y="200" width="78" height="78" as="geometry" />
        </mxCell>
        <mxCell id="amgUa6nvQ8_LvWN5kx6C-24" style="edgeStyle=orthogonalEdgeStyle;rounded=0;orthogonalLoop=1;jettySize=auto;html=1;fillOpacity=25;textOpacity=25;" edge="1" parent="amgUa6nvQ8_LvWN5kx6C-2" source="amgUa6nvQ8_LvWN5kx6C-25" target="amgUa6nvQ8_LvWN5kx6C-26">
          <mxGeometry relative="1" as="geometry" />
        </mxCell>
        <mxCell id="amgUa6nvQ8_LvWN5kx6C-25" value="Cognito" style="sketch=0;points=[[0,0,0],[0.25,0,0],[0.5,0,0],[0.75,0,0],[1,0,0],[0,1,0],[0.25,1,0],[0.5,1,0],[0.75,1,0],[1,1,0],[0,0.25,0],[0,0.5,0],[0,0.75,0],[1,0.25,0],[1,0.5,0],[1,0.75,0]];outlineConnect=0;fontColor=#232F3E;fillColor=#DD344C;strokeColor=#ffffff;dashed=0;verticalLabelPosition=bottom;verticalAlign=top;align=center;html=1;fontSize=12;fontStyle=0;aspect=fixed;shape=mxgraph.aws4.resourceIcon;resIcon=mxgraph.aws4.cognito;labelBackgroundColor=default;fillOpacity=25;textOpacity=25;" vertex="1" parent="amgUa6nvQ8_LvWN5kx6C-2">
          <mxGeometry x="400" y="41" width="78" height="78" as="geometry" />
        </mxCell>
        <mxCell id="amgUa6nvQ8_LvWN5kx6C-26" value="AppSync" style="sketch=0;points=[[0,0,0],[0.25,0,0],[0.5,0,0],[0.75,0,0],[1,0,0],[0,1,0],[0.25,1,0],[0.5,1,0],[0.75,1,0],[1,1,0],[0,0.25,0],[0,0.5,0],[0,0.75,0],[1,0.25,0],[1,0.5,0],[1,0.75,0]];outlineConnect=0;fontColor=#232F3E;fillColor=#E7157B;strokeColor=#ffffff;dashed=0;verticalLabelPosition=bottom;verticalAlign=top;align=center;html=1;fontSize=12;fontStyle=0;aspect=fixed;shape=mxgraph.aws4.resourceIcon;resIcon=mxgraph.aws4.appsync;labelBackgroundColor=default;fillOpacity=25;textOpacity=25;" vertex="1" parent="amgUa6nvQ8_LvWN5kx6C-2">
          <mxGeometry x="560" y="41" width="78" height="78" as="geometry" />
        </mxCell>
        <mxCell id="amgUa6nvQ8_LvWN5kx6C-27" value="Route 53" style="sketch=0;points=[[0,0,0],[0.25,0,0],[0.5,0,0],[0.75,0,0],[1,0,0],[0,1,0],[0.25,1,0],[0.5,1,0],[0.75,1,0],[1,1,0],[0,0.25,0],[0,0.5,0],[0,0.75,0],[1,0.25,0],[1,0.5,0],[1,0.75,0]];outlineConnect=0;fontColor=#232F3E;fillColor=#8C4FFF;strokeColor=#ffffff;dashed=0;verticalLabelPosition=bottom;verticalAlign=top;align=center;html=1;fontSize=12;fontStyle=0;aspect=fixed;shape=mxgraph.aws4.resourceIcon;resIcon=mxgraph.aws4.route_53;fillOpacity=25;textOpacity=25;" vertex="1" parent="amgUa6nvQ8_LvWN5kx6C-2">
          <mxGeometry x="240" y="360" width="78" height="78" as="geometry" />
        </mxCell>
        <mxCell id="amgUa6nvQ8_LvWN5kx6C-28" style="edgeStyle=orthogonalEdgeStyle;rounded=0;orthogonalLoop=1;jettySize=auto;html=1;entryX=0.5;entryY=0;entryDx=0;entryDy=0;entryPerimeter=0;fillOpacity=25;textOpacity=25;" edge="1" parent="amgUa6nvQ8_LvWN5kx6C-2" source="amgUa6nvQ8_LvWN5kx6C-29" target="amgUa6nvQ8_LvWN5kx6C-27">
          <mxGeometry relative="1" as="geometry" />
        </mxCell>
        <mxCell id="amgUa6nvQ8_LvWN5kx6C-29" value="AWS Amplify Hosting" style="sketch=0;points=[[0,0,0],[0.25,0,0],[0.5,0,0],[0.75,0,0],[1,0,0],[0,1,0],[0.25,1,0],[0.5,1,0],[0.75,1,0],[1,1,0],[0,0.25,0],[0,0.5,0],[0,0.75,0],[1,0.25,0],[1,0.5,0],[1,0.75,0]];outlineConnect=0;fontColor=#232F3E;fillColor=#DD344C;strokeColor=#ffffff;dashed=0;verticalLabelPosition=bottom;verticalAlign=top;align=center;html=1;fontSize=12;fontStyle=0;aspect=fixed;shape=mxgraph.aws4.resourceIcon;resIcon=mxgraph.aws4.amplify;labelBackgroundColor=default;fillOpacity=25;textOpacity=25;" vertex="1" parent="amgUa6nvQ8_LvWN5kx6C-2">
          <mxGeometry x="240" y="200" width="78" height="78" as="geometry" />
        </mxCell>
        <mxCell id="amgUa6nvQ8_LvWN5kx6C-30" value="CloudWatch" style="sketch=0;points=[[0,0,0],[0.25,0,0],[0.5,0,0],[0.75,0,0],[1,0,0],[0,1,0],[0.25,1,0],[0.5,1,0],[0.75,1,0],[1,1,0],[0,0.25,0],[0,0.5,0],[0,0.75,0],[1,0.25,0],[1,0.5,0],[1,0.75,0]];points=[[0,0,0],[0.25,0,0],[0.5,0,0],[0.75,0,0],[1,0,0],[0,1,0],[0.25,1,0],[0.5,1,0],[0.75,1,0],[1,1,0],[0,0.25,0],[0,0.5,0],[0,0.75,0],[1,0.25,0],[1,0.5,0],[1,0.75,0]];outlineConnect=0;fontColor=#232F3E;fillColor=#E7157B;strokeColor=#ffffff;dashed=0;verticalLabelPosition=bottom;verticalAlign=top;align=center;html=1;fontSize=12;fontStyle=0;aspect=fixed;shape=mxgraph.aws4.resourceIcon;resIcon=mxgraph.aws4.cloudwatch_2;fillOpacity=25;textOpacity=25;" vertex="1" parent="amgUa6nvQ8_LvWN5kx6C-2">
          <mxGeometry x="560" y="360" width="78" height="78" as="geometry" />
        </mxCell>
        <mxCell id="amgUa6nvQ8_LvWN5kx6C-31" style="edgeStyle=orthogonalEdgeStyle;rounded=0;orthogonalLoop=1;jettySize=auto;html=1;textOpacity=25;" edge="1" parent="amgUa6nvQ8_LvWN5kx6C-1" source="amgUa6nvQ8_LvWN5kx6C-34" target="amgUa6nvQ8_LvWN5kx6C-18">
          <mxGeometry relative="1" as="geometry">
            <Array as="points">
              <mxPoint x="450" y="180" />
              <mxPoint x="319" y="180" />
            </Array>
          </mxGeometry>
        </mxCell>
        <mxCell id="amgUa6nvQ8_LvWN5kx6C-32" style="edgeStyle=orthogonalEdgeStyle;rounded=0;orthogonalLoop=1;jettySize=auto;html=1;fillOpacity=25;textOpacity=25;" edge="1" parent="amgUa6nvQ8_LvWN5kx6C-1" source="amgUa6nvQ8_LvWN5kx6C-34" target="amgUa6nvQ8_LvWN5kx6C-25">
          <mxGeometry relative="1" as="geometry" />
        </mxCell>
        <mxCell id="amgUa6nvQ8_LvWN5kx6C-33" style="edgeStyle=orthogonalEdgeStyle;rounded=0;orthogonalLoop=1;jettySize=auto;html=1;fillOpacity=25;textOpacity=25;" edge="1" parent="amgUa6nvQ8_LvWN5kx6C-1" source="amgUa6nvQ8_LvWN5kx6C-34" target="amgUa6nvQ8_LvWN5kx6C-26">
          <mxGeometry relative="1" as="geometry">
            <Array as="points">
              <mxPoint x="510" y="180" />
              <mxPoint x="639" y="180" />
            </Array>
          </mxGeometry>
        </mxCell>
        <mxCell id="amgUa6nvQ8_LvWN5kx6C-34" value="Client / User" style="sketch=0;outlineConnect=0;fontColor=#232F3E;gradientColor=none;fillColor=#232F3D;strokeColor=none;dashed=0;verticalLabelPosition=bottom;verticalAlign=top;align=center;html=1;fontSize=12;fontStyle=0;aspect=fixed;pointerEvents=1;shape=mxgraph.aws4.client;labelBackgroundColor=default;fillOpacity=25;textOpacity=25;" vertex="1" parent="amgUa6nvQ8_LvWN5kx6C-1">
          <mxGeometry x="440" y="80" width="78" height="76" as="geometry" />
        </mxCell>
        <mxCell id="amgUa6nvQ8_LvWN5kx6C-35" value="Third party" style="fillColor=none;strokeColor=#5A6C86;verticalAlign=top;fontStyle=0;fontColor=#5A6C86;whiteSpace=wrap;html=1;fillOpacity=25;textOpacity=25;" vertex="1" parent="amgUa6nvQ8_LvWN5kx6C-1">
          <mxGeometry x="1000" y="559" width="160" height="201" as="geometry" />
        </mxCell>
        <mxCell id="amgUa6nvQ8_LvWN5kx6C-36" value="Approval API" style="sketch=0;points=[[0,0,0],[0.25,0,0],[0.5,0,0],[0.75,0,0],[1,0,0],[0,1,0],[0.25,1,0],[0.5,1,0],[0.75,1,0],[1,1,0],[0,0.25,0],[0,0.5,0],[0,0.75,0],[1,0.25,0],[1,0.5,0],[1,0.75,0]];gradientDirection=north;outlineConnect=0;fontColor=#232F3E;gradientColor=none;fillColor=#1E262E;strokeColor=#ffffff;dashed=0;verticalLabelPosition=bottom;verticalAlign=top;align=center;html=1;fontSize=12;fontStyle=0;aspect=fixed;shape=mxgraph.aws4.resourceIcon;resIcon=mxgraph.aws4.general;fillOpacity=25;textOpacity=25;" vertex="1" parent="amgUa6nvQ8_LvWN5kx6C-1">
          <mxGeometry x="1040" y="600" width="78" height="78" as="geometry" />
        </mxCell>
        <mxCell id="amgUa6nvQ8_LvWN5kx6C-37" style="edgeStyle=orthogonalEdgeStyle;rounded=0;orthogonalLoop=1;jettySize=auto;html=1;fillOpacity=25;textOpacity=25;" edge="1" parent="amgUa6nvQ8_LvWN5kx6C-1" source="amgUa6nvQ8_LvWN5kx6C-16" target="amgUa6nvQ8_LvWN5kx6C-36">
          <mxGeometry relative="1" as="geometry" />
        </mxCell>
      </root>
    </mxGraphModel>
  </diagram>
</mxfile>
